<?xml version="1.0" encoding="UTF-8"?>
<svg id="Layer_1" xmlns="http://www.w3.org/2000/svg" xmlns:xlink="http://www.w3.org/1999/xlink" version="1.1" viewBox="0 0 138.6 136">
  <!-- Generator: Adobe Illustrator 30.2.1, SVG Export Plug-In . SVG Version: 2.1.1 Build 1)  -->
  <defs>
    <style>
      .st0 {
        fill: none;
      }

      .st1 {
        fill: #cc5236;
      }

      .st2 {
        clip-path: url(#clippath);
      }
    </style>
    <clipPath id="clippath">
      <rect class="st0" x="1.2" y=".9" width="135.5" height="133.4"/>
    </clipPath>
  </defs>
  <g class="st2">
    <path class="st1" d="M55.6,1.4c18.5-2.2,38.3,4.2,53.9,14.4,15.6,10.2,27.4,27.3,27.1,45.7-.1,6.5-1.7,13-3.5,19.3-3.5,12.1-8,24.1-15.7,34.1-7.7,10-18.9,17.9-31.6,19.3-17.9,1.9-34.3-9-48.8-19.4-7.9-5.6-15.8-11.3-22.1-18.6C.6,79.3-2.9,54.2,6.2,34.1,15.4,14.1,40.4,3.2,55.6,1.4"/>
  </g>
</svg>